<svg width="24" height="25" viewBox="0 0 24 25" fill="none" xmlns="http://www.w3.org/2000/svg">
<path d="M10.5465 2.2419C11.3791 1.34445 11.7953 0.895724 12.1334 0.840196C12.2665 0.818338 12.329 0.818476 12.4619 0.840925C12.7997 0.897952 13.2156 1.35029 14.0474 2.25496C14.8973 3.17925 15.9766 4.11427 17.0958 4.46512C17.9976 4.74779 19.219 4.74333 20.2027 4.67049C20.964 4.61412 21.3446 4.58593 21.6088 4.7357C21.6967 4.7855 21.7707 4.84336 21.8403 4.91654C22.0496 5.13661 22.1064 5.46635 22.22 6.12582C22.6253 8.47909 23.1135 12.8106 21.886 15.6279C20.755 18.2238 17.6861 20.6387 15.3235 22.2012C14.2123 22.9361 13.6566 23.3035 12.7458 23.4251C12.5054 23.4572 12.0861 23.4654 11.8446 23.4429C10.9297 23.3574 10.3591 23.0117 9.21784 22.3202C6.68756 20.787 3.33452 18.3501 2.12634 15.6279C0.881315 12.8227 1.37375 8.49739 1.78515 6.13908C1.90121 5.47377 1.95924 5.14111 2.17236 4.92045C2.24291 4.84741 2.31887 4.78919 2.40774 4.74005C2.6762 4.5916 3.05773 4.62611 3.82079 4.69512C4.96115 4.79825 6.44603 4.827 7.51535 4.46512C8.62164 4.09072 9.69636 3.15837 10.5465 2.2419Z" fill="white" stroke="white" stroke-width="1.5" stroke-linejoin="round"/>
</svg>
